<?xml version="1.0" standalone="no"?><!DOCTYPE svg PUBLIC "-//W3C//DTD SVG 1.1//EN" "http://www.w3.org/Graphics/SVG/1.1/DTD/svg11.dtd"><svg class="icon" width="200px" height="200.00px" viewBox="0 0 1024 1024" version="1.1" xmlns="http://www.w3.org/2000/svg"><path fill="#ffffff" d="M977.738 122.574c5.351 1.989 11.009 3.402 15.996 6.066 18.121 9.682 27.953 24.711 27.953 45.618 0.005 182.484 0.006 364.969-0.002 547.453-0.001 28.635-21.478 50.879-50.095 51.936-2.096 0.077-4.194 0.021-6.292 0.021-185.106 0.002-370.214 0.002-555.319 0.002H399.5V659.733h11.079c187.204 0 374.408 0 561.611-0.002 13.436 0 13.52-0.09 13.52-13.664V174.91c0-12.79-0.323-13.105-13.383-13.105-262.715-0.002-525.429 0-788.144 0-13.022 0-13.723 0.697-13.724 13.8-0.005 46.931-0.002 93.864-0.002 140.797v8.927h-41.06v-9.032c0-46.407-0.018-92.815 0.007-139.222 0.015-27.215 13.932-45.467 40.215-52.945 0.913-0.26 1.681-1.026 2.516-1.557l805.603 0.001z m-400.589 561.42c-12.356 0.027-22.644 10.149-22.69 22.323-0.048 12.477 10.583 22.824 23.229 22.61 12.409-0.212 22.249-10.317 22.153-22.755-0.094-12.29-10.239-22.207-22.692-22.178zM5.352 399.5c1.512-3.559 2.819-7.222 4.573-10.656 7.302-14.299 18.696-22.105 35.12-22.097 89.929 0.042 179.862 0.524 269.784-0.301 25.439-0.233 42.843 19.934 42.697 43.211-0.147 23.333-0.032 46.668-0.032 70.003 0 126.896-0.01 253.792 0.012 380.689 0.003 15.002-4.379 28.457-17.169 36.817-6.388 4.175-14.972 6.961-22.581 7.001-90.451 0.469-180.905 0.304-271.358 0.3-19.568 0-32.535-9.324-38.982-27.953-0.587-1.695-1.371-3.322-2.064-4.981V399.5z m322.422 33.925H34.086v403.036h293.688V433.425z m-146.973-21.601c10.728 0 21.456 0.011 32.184-0.006 4.236-0.006 8.285-0.784 8.227-6.094s-4.166-5.957-8.368-5.958c-21.457-0.008-42.912-0.011-64.369 0.004-4.223 0.003-8.274 0.742-8.218 6.092 0.056 5.355 4.173 5.948 8.359 5.956 10.728 0.018 21.457 0.006 32.185 0.006z m-0.137 466.593c8.971-0.124 15.706-7.011 15.637-15.989-0.067-8.794-7.204-16.04-15.843-16.083-8.721-0.046-16.501 7.95-16.244 16.693 0.256 8.658 7.576 15.502 16.45 15.379z m316.219-27.031c0-9.756-0.08-18.135 0.02-26.514 0.128-10.651 4.85-15.611 15.265-15.628 46.934-0.074 93.867-0.083 140.801 0.011 10.166 0.02 14.625 4.826 14.687 15.129 0.05 8.615 0.011 17.231 0.011 27.002h8.789c33.562 0 67.123-0.009 100.685 0.005 15.486 0.006 19.333 3.938 19.343 19.689 0.003 4.719 0.18 9.448-0.056 14.156-0.435 8.714-5.229 13.457-13.839 13.972-1.829 0.109-3.67 0.029-5.505 0.029-119.563 0-239.127 0.002-358.69-0.001-15.799 0-19.363-3.593-19.371-19.47-0.002-3.671-0.011-7.342 0.001-11.013 0.048-12.856 4.528-17.325 17.654-17.353 23.598-0.051 47.195-0.016 70.794-0.016 2.814 0.002 5.63 0.002 9.411 0.002z" /></svg>