<?xml version="1.0" standalone="no"?><!DOCTYPE svg PUBLIC "-//W3C//DTD SVG 1.1//EN" "http://www.w3.org/Graphics/SVG/1.1/DTD/svg11.dtd"><svg class="icon" width="200px" height="183.18px" viewBox="0 0 1118 1024" version="1.1" xmlns="http://www.w3.org/2000/svg"><path fill="#ffffff" d="M686.386387 593.513764a333.228234 333.228234 0 1 0-416.136695 0A478.318039 478.318039 0 0 0 0 1024h159.439346a318.878693 318.878693 0 1 1 637.757386 0h159.439347a478.318039 478.318039 0 0 0-270.249692-430.486236zM478.318039 161.433136a173.788888 173.788888 0 1 1-173.788887 173.788887A173.788888 173.788888 0 0 1 478.318039 161.433136zM956.636079 241.152809h159.439346v79.719673h-159.439346zM956.636079 400.592155h159.439346v79.719673h-159.439346zM956.636079 560.031502h159.439346v79.719673h-159.439346z"  /></svg>